<?xml version="1.0" encoding="UTF-8" standalone="no"?>
<!-- Created with Inkscape (http://www.inkscape.org/) -->

<svg
   xmlns:dc="http://purl.org/dc/elements/1.1/"
   xmlns:cc="http://creativecommons.org/ns#"
   xmlns:rdf="http://www.w3.org/1999/02/22-rdf-syntax-ns#"
   xmlns:svg="http://www.w3.org/2000/svg"
   xmlns="http://www.w3.org/2000/svg"
   xmlns:sodipodi="http://sodipodi.sourceforge.net/DTD/sodipodi-0.dtd"
   xmlns:inkscape="http://www.inkscape.org/namespaces/inkscape"
   width="210mm"
   height="297mm"
   viewBox="0 0 210 297"
   version="1.1"
   id="svg873"
   inkscape:version="0.92.4 (5da689c313, 2019-01-14)"
   sodipodi:docname="logo.svg">
  <defs
     id="defs867" />
  <sodipodi:namedview
     id="base"
     pagecolor="#ffffff"
     bordercolor="#666666"
     borderopacity="1.0"
     inkscape:pageopacity="0.0"
     inkscape:pageshadow="2"
     inkscape:zoom="0.7"
     inkscape:cx="196.63038"
     inkscape:cy="554.56442"
     inkscape:document-units="mm"
     inkscape:current-layer="layer1"
     showgrid="false"
     inkscape:window-width="1920"
     inkscape:window-height="1018"
     inkscape:window-x="-8"
     inkscape:window-y="-8"
     inkscape:window-maximized="1" />
  <metadata
     id="metadata870">
    <rdf:RDF>
      <cc:Work
         rdf:about="">
        <dc:format>image/svg+xml</dc:format>
        <dc:type
           rdf:resource="http://purl.org/dc/dcmitype/StillImage" />
        <dc:title></dc:title>
      </cc:Work>
    </rdf:RDF>
  </metadata>
  <g
     inkscape:label="Layer 1"
     inkscape:groupmode="layer"
     id="layer1">
    <path
       style="fill:#ffffff;stroke-width:0.99999994"
       d="m 126.72622,248.52893 c -0.84054,-0.49033 -1.26799,-2.28086 -1.09802,-4.59912 0.0864,-1.18033 0.26468,-4.27831 0.39472,-6.88435 0.1308,-2.60605 0.29221,-4.82701 0.36029,-4.93556 0.0689,-0.10862 0.18741,-1.42977 0.26773,-2.93635 l 0.14688,-2.73914 h -0.7313 c -1.10459,0 -1.50841,-0.23714 -1.50841,-0.88589 0,-0.47351 0.12775,-0.58749 0.65709,-0.58749 h 0.6571 l -0.56607,-0.60278 c -0.43067,-0.45897 -0.86501,-0.61961 -1.82326,-0.67545 -1.17528,-0.0688 -1.26271,-0.11857 -1.33668,-0.76343 -0.13999,-1.22033 0.31286,-1.46764 2.33945,-1.2777 0.98565,0.0918 1.79183,0.10863 1.79183,0.0383 0,-0.2509 -2.17706,-1.62904 -2.57261,-1.62904 -0.21802,0 -0.69535,-0.30369 -1.06099,-0.67546 -0.63491,-0.64562 -0.78745,-0.67928 -3.44069,-0.75807 l -2.77632,-0.0834 0.0765,-0.88535 c 0.0688,-0.78179 0.17517,-0.91175 0.93454,-1.11148 1.30279,-0.3427 5.06988,-0.0383 6.80732,0.54235 0.83999,0.28303 1.66048,0.51481 1.82334,0.51481 0.55612,0 -0.84175,-1.2129 -1.72887,-1.50022 -0.48651,-0.15758 -1.69208,-0.72671 -2.67879,-1.26455 -1.69001,-0.92146 -1.78953,-1.02251 -1.71908,-1.74569 0.0612,-0.62574 0.20348,-0.79043 0.77153,-0.8914 l 0.69688,-0.12393 -0.57372,-0.5041 c -0.31592,-0.27768 -1.0437,-0.80397 -1.61772,-1.17 -0.97103,-0.61884 -1.04378,-0.74124 -1.04378,-1.75465 0,-0.94456 0.10556,-1.16709 0.79815,-1.67632 0.43909,-0.32281 1.16579,-0.73206 1.6152,-0.90968 0.57372,-0.22642 0.77758,-0.43908 0.68463,-0.71446 -0.0765,-0.21572 -0.40772,-1.16579 -0.7443,-2.11127 -0.33657,-0.94556 -0.68692,-2.46652 -0.77795,-3.38003 l -0.16523,-1.66102 -1.39467,0.0811 c -1.38976,0.0811 -3.16392,0.76549 -4.49272,1.733 -0.63414,0.46127 -2.06751,2.36707 -1.78066,2.36707 0.0765,0 0.79012,-0.27615 1.59241,-0.61426 1.69123,-0.71217 1.73024,-0.71676 2.30702,-0.29527 0.41537,0.30369 0.41001,0.36259 -0.0903,1.21062 -0.46509,0.78744 -0.77535,0.97179 -2.66096,1.57848 -2.13269,0.68616 -2.13384,0.68693 -1.15263,0.82408 1.17344,0.16447 1.59638,0.39472 1.59638,0.87136 0,0.69458 -0.94357,1.3363 -1.96471,1.3363 h -0.98235 l 0.004,1.53488 c 0.002,0.8442 0.22261,2.75061 0.49187,4.23646 0.64791,3.58495 1.59141,17.55108 1.292,19.11748 -0.0864,0.45285 -0.30904,0.63491 -0.88964,0.7267 -1.79366,0.28457 -2.32897,-1.49456 -2.49818,-8.30111 -0.11551,-4.63899 -0.21572,-6.77994 -0.50716,-10.80604 -0.0688,-0.94548 -0.15682,-2.16114 -0.19583,-2.70143 -0.12545,-1.72948 -0.64945,-4.64854 -0.87603,-4.87489 -0.12774,-0.12775 -0.70299,-0.0536 -1.38739,0.17899 -1.47927,0.50334 -3.21028,0.5064 -4.92722,0.007 -1.396649,-0.40619 -1.811866,-0.86991 -1.384028,-1.5462 0.208833,-0.3297 0.761128,-0.39701 3.302078,-0.39701 2.53199,0 3.16713,-0.0765 3.73274,-0.4452 1.13152,-0.73895 0.76786,-1.24198 -1.07078,-1.48042 -1.95186,-0.2532 -1.74119,-0.25167 -5.04625,-0.0306 -3.331368,0.22414 -4.917422,0.0306 -5.28414,-0.65862 -0.474271,-0.88635 0.279973,-1.11614 4.177179,-1.27242 1.967761,-0.0788 3.964521,-0.24096 4.437261,-0.35953 l 0.85958,-0.21572 -1.35075,-0.28915 c -0.86371,-0.18512 -1.62293,-0.21036 -2.10561,-0.0688 -0.52629,0.15299 -0.93501,0.12087 -1.350758,-0.10556 -0.403895,-0.22031 -1.057624,-0.27768 -2.031868,-0.179 -1.087075,0.11015 -1.488829,0.0612 -1.653905,-0.19812 -0.445968,-0.70376 -0.232546,-1.16357 0.679278,-1.46458 1.262326,-0.4169 6.412453,-0.16829 7.471523,0.35953 1.04455,0.52093 1.25086,0.49492 1.1573,-0.14611 -0.0536,-0.3733 -0.3251,-0.60202 -0.88543,-0.74583 -0.44367,-0.11474 -0.7443,-0.30904 -0.66857,-0.4322 0.0765,-0.12315 -0.11321,-0.36717 -0.42149,-0.54311 -0.41384,-0.23637 -2.09199,-0.32281 -6.453757,-0.33505 -6.323562,-0.0153 -7.509468,-0.1224 -9.871644,-0.87893 -2.369901,-0.75884 -3.328617,-1.77003 -2.481431,-2.61722 0.426079,-0.42607 0.804807,-0.36641 1.74547,0.27156 0.800829,0.54312 1.917814,0.85874 4.83634,1.36506 0.825537,0.14305 2.687586,0.15223 4.788989,0.023 1.891041,-0.11551 3.825143,-0.22796 4.297893,-0.24784 l 0.85957,-0.0383 -0.85957,-0.20501 c -0.47275,-0.11321 -1.34984,-0.27309 -1.948875,-0.35647 -1.522257,-0.21112 -4.641124,-1.49066 -5.647649,-2.31712 -0.770155,-0.63261 -0.822937,-0.75883 -0.614257,-1.46932 l 0.228721,-0.77734 1.742639,0.86041 c 2.427962,1.19876 2.807072,1.32513 5.605424,1.8684 2.640847,0.51252 3.826377,0.60202 3.826377,0.28839 0,-0.10709 -0.96698,-0.34117 -2.14891,-0.52017 -5.788325,-0.87901 -8.647414,-2.16497 -14.428471,-6.48978 -2.518608,-1.88424 -3.550836,-2.85902 -5.1144,-4.82961 -0.696873,-0.87802 -1.519656,-1.87268 -1.829003,-2.21026 -0.713702,-0.77949 -0.93332,-1.62208 -0.544647,-2.09077 0.605843,-0.72976 1.046532,-0.41078 3.709181,2.69065 1.448133,1.68649 3.97638,4.04461 5.374944,5.01327 0.742769,0.51482 2.069121,1.44049 2.947135,2.0578 3.458276,2.43133 7.433661,3.86562 9.667781,3.48819 0.8325,-0.14075 0.909,-0.20195 0.52247,-0.41767 -0.24861,-0.13922 -1.28949,-0.46662 -2.31307,-0.72823 -2.233051,-0.56989 -4.738655,-1.63914 -6.859182,-2.92648 -0.858048,-0.52094 -1.652987,-0.94717 -1.766583,-0.94717 -0.113978,0 -0.360292,-0.2203 -0.548471,-0.4888 -0.188178,-0.2685 -1.067033,-1.03728 -1.953002,-1.70799 -1.001782,-0.75807 -2.263114,-2.08258 -3.335961,-3.50234 -0.948771,-1.25559 -2.39698,-2.94247 -3.21831,-3.74873 -1.712348,-1.68091 -1.884845,-2.27183 -0.696873,-2.38657 l 0.796469,-0.0773 -1.594621,-1.15424 c -2.924033,-2.1164 -5.987441,-5.38305 -7.115671,-7.58773 -1.10681,-2.16252 -0.187413,-2.45664 3.3124,-1.05992 6.705274,2.67566 7.779957,2.69601 2.888693,0.0536 -4.171519,-2.25256 -6.854057,-4.95644 -9.578437,-9.6547 -1.008056,-1.73843 -4.172361,-10.46517 -4.821424,-13.29672 -0.339639,-1.48134 -0.335814,-1.51377 0.208832,-1.80499 0.472742,-0.2532 0.695343,-0.2073 1.507035,0.30828 1.728794,1.09702 8.963721,4.89991 9.087184,4.77637 0.06885,-0.0688 -0.222601,-0.36642 -0.64409,-0.66628 -0.420725,-0.29909 -0.706817,-0.60355 -0.635676,-0.67392 -0.490335,-1.22416 -2.554255,-3.45162 -3.545864,-4.24174 -0.880079,-0.62726 -2.940863,-2.62479 -2.940863,-2.85129 0,-0.0857 -0.248609,-0.36718 -0.553061,-0.62497 -4.719914,-3.9981 -7.804817,-8.82626 -7.793725,-12.19779 0.0055,-1.5644 0.291447,-1.9917 1.032457,-1.53969 0.538527,0.32893 0.543882,0.32357 0.149931,-0.1224 -0.641031,-0.72747 -4.546193,-7.58007 -5.787789,-10.15819 -0.888263,-1.84438 -1.125322,-2.60719 -1.145134,-3.68394 l -0.0306,-1.35795 0.761894,0.0306 c 0.585954,0.0306 1.1472,0.40849 2.428191,1.65781 0.916184,0.89393 1.788919,1.62354 1.939232,1.62117 0.150696,-0.002 -0.224131,-0.47963 -0.831886,-1.05954 -1.908788,-1.82296 -4.175038,-4.63095 -4.175038,-5.173 0,-0.10632 -0.376357,-0.63261 -0.836017,-1.16999 -0.903487,-1.05556 -3.751331,-6.681944 -4.393126,-8.679389 -0.444438,-1.383265 -1.143452,-4.043619 -1.316102,-5.00899 -0.0612,-0.351879 -0.33658,-1.468481 -0.608903,-2.481508 -0.272323,-1.013028 -0.588249,-2.781293 -0.702992,-3.929488 -0.115508,-1.148042 -0.497219,-3.80044 -0.848486,-5.894117 -0.586719,-3.492011 -0.634146,-4.29896 -0.572185,-9.762103 0.0306,-3.275529 0.09409,-5.955543 0.126982,-5.955543 0.0306,-7.6e-5 0.680044,0.563006 1.440407,1.251081 1.426408,1.291853 1.658648,1.448362 9.0611,6.107463 6.215244,3.91197 6.574084,4.158744 9.845023,6.770524 3.203854,2.558156 6.441288,5.801328 8.082419,8.096723 0.999335,1.397799 4.675394,7.799539 5.599687,9.751776 0.687693,1.451651 0.909146,1.359933 0.909146,-0.376357 0,-1.373474 0.0612,-1.599135 0.488806,-1.71013 0.385536,-0.100973 0.815975,0.293742 2.039747,1.874671 3.366253,4.347764 4.531659,6.459647 6.766929,12.261967 1.67716,4.35358 2.111576,5.23381 1.88515,3.8198 -0.204242,-1.27587 0.273089,-1.45395 1.139857,-0.42532 0.387066,0.45974 1.441401,1.88554 2.342975,3.16882 2.573991,3.66374 3.941192,7.54756 4.878948,13.85881 0.07879,0.53088 0.217247,0.85866 0.308276,0.72823 0.353412,-0.50946 1.604562,-1.32528 2.031182,-1.32528 0.70069,0 0.8927,0.63032 1.31143,4.30891 0.82172,7.21634 1.40454,12.04602 1.52463,12.63335 0.11016,0.54082 0.15299,0.56071 0.36489,0.18206 -0.007,-0.7573 0.54694,-1.24794 0.72976,-1.90611 0.38324,-1.49479 0.86103,-1.53358 1.41157,-0.11474 0.28303,0.729 0.38248,1.93273 0.3863,4.66621 0.005,3.05063 -0.0933,4.08477 -0.57065,6.01689 -0.47198,1.91132 -2.7211,9.76601 -3.34017,11.66554 -0.088,0.27003 0.34499,-0.44826 0.962,-1.59631 1.2774,-2.3764 3.45032,-7.37162 3.68578,-8.47285 0.0864,-0.40466 0.49033,-1.40368 0.89583,-2.21882 0.72977,-1.46542 1.49962,-2.23244 1.95652,-1.95002 0.30981,0.19124 0.29757,1.68428 -0.0306,4.28573 -0.23561,1.84025 -0.20195,2.57575 0.26467,5.66524 0.78048,5.17131 1.51652,7.80757 3.97378,14.23341 0.77375,2.02322 0.79869,2.20482 0.81008,5.89419 0.0153,3.83005 -0.48192,8.01771 -1.18636,10.06235 l -0.32434,0.9425 0.73053,0.1461 c 0.40236,0.0803 0.97386,0.14611 1.2712,0.14611 0.67239,0 1.60846,0.96246 1.60846,1.65345 0,0.94578 -0.26391,1.22935 -1.91819,2.06269 -1.07652,0.54159 -2.29838,1.47437 -3.54602,2.70526 -1.04691,1.03292 -1.90359,1.95216 -1.90359,2.04281 0,0.21571 1.29691,-0.71064 1.73744,-1.24129 0.60049,-0.72365 2.13353,-1.55928 3.16178,-1.72359 0.9848,-0.15759 0.99498,-0.15147 0.99498,0.6089 0,0.50028 -0.12239,0.76816 -0.34882,0.76816 -0.46739,0 -5.66876,4.23058 -5.58592,4.54344 0.12392,0.47045 1.83956,0.0872 3.09041,-0.68998 2.41496,-1.50153 2.98707,-1.71518 4.26469,-1.59241 l 1.19761,0.11551 -0.0229,-5.42428 c -0.0306,-8.13926 0.86279,-14.09365 2.77417,-18.5196 0.38937,-0.90203 0.95926,-2.40906 1.26608,-3.34888 0.82446,-2.52565 1.7408,-4.18537 2.31062,-4.18537 0.40619,0 0.52705,0.30445 0.82301,2.08473 0.23713,1.42633 0.68769,2.80531 1.42717,4.36612 0.59437,1.25475 1.08203,2.36118 1.08402,2.45864 0.007,0.38553 1.69735,2.12955 1.7063,1.76138 0.005,-0.2096 -0.0918,-0.48575 -0.21419,-0.61426 -0.12239,-0.12851 -0.61425,-1.5042 -1.09151,-3.05759 -2.03852,-6.63146 -2.78955,-10.66376 -2.52212,-13.54074 0.20347,-2.18586 0.31592,-2.42261 1.15706,-2.42261 0.56836,0 0.73665,0.13157 0.86249,0.67545 0.17211,0.74277 1.8082,3.83647 1.95239,3.6922 0.0459,-0.0459 0.20424,-1.57748 0.3427,-3.3954 0.47274,-6.17409 0.77161,-8.45747 1.53465,-11.71671 0.8227,-3.51358 1.08164,-3.84756 1.90504,-2.45588 1.45517,2.45971 2.5873,4.08944 2.72889,3.92842 0.0887,-0.10098 0.40925,-1.67517 0.71217,-3.49867 1.07017,-6.43654 1.96172,-10.46984 2.9518,-13.35302 0.55077,-1.60357 1.11569,-3.12988 1.2559,-3.3918 0.37406,-0.69994 1.2159,-0.46433 1.67433,0.46891 0.21419,0.43603 0.45438,0.7951 0.5347,0.79816 0.15376,0.006 0.52247,-1.56908 0.96675,-4.13626 0.57831,-3.33917 4.14521,-12.39086 6.25556,-15.87369 0.73665,-1.21574 1.82633,-2.73081 2.42161,-3.36687 0.59514,-0.63567 1.43628,-1.60311 1.86855,-2.14891 0.58902,-0.74353 0.96147,-0.99237 1.48577,-0.99237 0.5806,0 0.71294,0.11551 0.7775,0.67392 0.0765,0.64333 0.11933,0.61273 0.98763,-0.67545 4.2129,-6.249971 6.22006,-8.676479 11.17199,-13.506547 4.35794,-4.250691 6.17271,-5.738908 11.0613,-9.070738 5.42061,-3.694418 5.78075,-3.669939 5.91561,0.402366 0.0688,2.128558 -0.0612,3.533471 -0.67086,7.121943 -0.4169,2.458712 -0.75884,4.890269 -0.75884,5.403553 0,0.513283 -0.27462,2.038141 -0.61119,3.388589 -0.46357,1.862355 -0.61579,3.137379 -0.6288,5.279554 -0.007,1.55339 -0.12239,3.37689 -0.24937,4.05226 -0.12775,0.67546 -0.32893,1.89104 -0.44673,2.70151 -0.54924,3.77321 -2.76783,9.70205 -4.69047,12.53452 -0.47886,0.70529 -0.62037,1.03751 -0.33505,0.78867 0.6571,-0.57372 0.75654,-0.54771 0.93225,0.25167 0.0903,0.41078 -0.13616,1.79848 -0.57218,3.49966 -0.60585,2.36738 -1.18859,3.74154 -3.63988,8.58958 -1.60502,3.17425 -3.12812,6.08811 -3.38484,6.47525 -0.358,0.5393 -0.48116,1.22814 -0.52858,2.94706 -0.12699,4.63065 -1.70608,7.45049 -8.50812,15.1945 -1.09924,1.25146 -1.83757,2.15571 -1.64067,2.00945 0.19659,-0.1461 0.74506,-0.41231 1.21742,-0.59131 0.96392,-0.36488 3.12124,-1.35794 3.68379,-1.69643 1.18935,-0.71524 3.02959,-1.47713 3.24577,-1.34349 0.66857,0.41307 -0.5041,5.17468 -2.04724,8.31726 -0.53088,1.08057 -0.96239,2.04158 -0.95903,2.13544 0.004,0.0941 -0.69075,1.64121 -1.54237,3.43824 -0.8517,1.7971 -1.70095,3.65433 -1.88729,4.12707 -0.64333,1.63348 -1.9696,3.9724 -2.88762,5.09421 l -0.92154,1.12578 0.98243,-0.1637 c 0.54082,-0.0903 1.34142,-0.23102 1.78042,-0.31363 1.1817,-0.22184 1.04409,0.36259 -0.57448,2.44112 -1.24335,1.59653 -2.4623,2.79781 -6.47249,6.37818 -0.99804,0.89101 -1.24955,1.24626 -1.0346,1.46121 0.52017,0.52017 0.33046,2.56611 -0.36489,3.93821 -0.69534,1.37186 -4.33055,5.10468 -5.61246,5.76285 -0.40619,0.20883 -1.62223,1.08639 -2.70288,1.95101 -1.08058,0.8647 -2.84884,2.08266 -3.92941,2.70671 -1.08058,0.62497 -2.87959,1.7519 -3.9978,2.50622 -1.11821,0.75424 -2.38918,1.57435 -2.82429,1.82227 l -0.79119,0.45056 0.98236,-0.16294 c 0.54082,-0.0895 1.0873,-0.26467 1.21566,-0.38936 0.12851,-0.12469 0.4605,-0.22796 0.73665,-0.22949 0.48957,-0.004 4.43061,-1.8775 5.08801,-2.41916 1.91996,-1.58185 4.32374,-3.41643 4.84108,-3.69488 0.58825,-0.31592 3.10984,-2.31926 4.75281,-3.77504 0.36871,-0.3274 0.59054,-0.68387 0.4911,-0.79326 -0.0987,-0.10938 -0.0459,-0.12468 0.10862,-0.0306 0.35724,0.20424 1.89127,-1.62346 2.41588,-2.87875 0.42761,-1.02382 0.82079,-1.26095 1.71709,-1.03598 0.67622,0.16982 0.78201,0.70299 0.30292,1.52341 -0.16676,0.28532 -0.55306,0.97378 -0.85797,1.52921 -0.95902,1.74616 -5.22364,5.67091 -10.812,9.95021 -1.87544,1.43604 -5.18593,3.11099 -7.94695,4.02067 -1.1267,0.37177 -1.87681,0.70834 -1.66683,0.74812 0.3993,0.0773 5.08793,-1.53572 6.67475,-2.29608 0.5064,-0.24249 0.92093,-0.53088 0.92093,-0.6418 0,-0.23407 1.01387,-0.2662 1.57626,-0.0459 0.69305,0.2662 0.41919,1.0538 -0.63032,1.81416 -0.55995,0.40619 -1.11989,0.73818 -1.24313,0.73818 -0.12315,0 -0.79731,0.26391 -1.49808,0.58595 -0.7007,0.32205 -1.60571,0.66704 -2.01091,0.7671 -1.49831,0.36718 -0.078,0.38018 2.97498,0.0306 1.72933,-0.20042 3.21341,-0.32128 3.29787,-0.26927 0.15299,0.0949 4.14466,-0.67086 5.13566,-0.9851 0.60967,-0.19354 1.23938,0.23331 1.23938,0.84007 0,0.52782 -1.14039,1.6243 -2.04472,1.96593 -0.91374,0.34499 -4.2754,0.70528 -11.70837,1.25406 -4.47452,0.33046 -5.75092,0.69764 -6.12231,1.76345 -0.24172,0.69381 -0.22489,0.72747 0.29221,0.57983 0.30216,-0.0864 2.11678,-0.22566 4.03223,-0.3098 3.56093,-0.15682 4.99017,0.0688 4.99017,0.77956 0,0.70223 -0.82699,0.94212 -3.87885,1.12632 -1.71625,0.10327 -3.61785,0.34117 -4.22568,0.52628 l -1.10513,0.33811 3.06984,0.29681 c 1.68848,0.1637 3.92252,0.29603 4.96462,0.29374 1.6523,-0.003 1.92875,0.0612 2.16061,0.49416 0.32434,0.60508 -0.0612,1.06619 -1.33729,1.59944 -1.07071,0.4475 -2.71643,0.4452 -6.03342,-0.007 -3.71614,-0.50869 -3.92948,-0.49492 -3.92948,0.24555 v 0.61426 l 2.88571,0.004 c 3.39111,0.004 3.84534,0.0964 4.18873,0.84971 0.20959,0.4605 0.16217,0.66857 -0.25856,1.11982 -0.49645,0.53317 -0.62496,0.5477 -3.38063,0.40007 -3.13539,-0.16829 -4.08194,0.0459 -4.32367,0.98365 -0.31669,1.22775 -0.46509,6.51044 -0.18665,6.67261 0.20195,0.11704 0.21495,0.60737 0.0459,1.75924 -0.12775,0.87794 -0.27997,2.8672 -0.33888,4.42067 -0.22719,5.97841 -0.4735,8.76399 -0.81261,9.17217 -0.37176,0.44749 -1.39948,0.52399 -2.03752,0.15222 z m -17.14253,-54.6917 c 0.53394,-0.97524 0.54388,-1.06665 0.15835,-1.49288 -0.6242,-0.68999 -0.51329,-1.82472 0.26467,-2.69287 1.32406,-1.47819 1.69001,-2.0923 2.64414,-4.43504 0.47886,-1.17612 0.61579,-1.89448 0.56071,-2.94714 l -0.0765,-1.39183 -1.05823,2.21033 c -1.66125,3.46975 -3.51726,7.05754 -4.03987,7.8091 -0.39013,0.56071 -0.42914,0.80917 -0.21649,1.35076 0.14305,0.36565 0.33505,1.10581 0.42532,1.6461 0.28533,1.69552 0.37865,1.69154 1.33576,-0.0536 z m -4.55973,-16.64354 c 0.37636,-1.08065 1.16342,-3.06991 1.74891,-4.42067 2.34925,-5.41939 3.21632,-7.89202 2.98225,-8.50436 -0.38707,-1.01357 -1.40667,-6.07327 -1.40667,-6.98319 0,-0.5194 -0.0995,-0.81169 -0.24555,-0.72135 -0.13464,0.0834 -0.24555,0.34882 -0.24555,0.59055 0,0.24096 -0.42073,1.0912 -0.93539,1.88882 -0.51481,0.79762 -1.74799,2.99739 -2.74113,4.88843 -0.99314,1.89104 -2.13476,3.90325 -2.53689,4.47146 l -0.7313,1.03315 0.87993,2.77349 c 0.48421,1.52547 1.18269,3.79761 1.55262,5.0493 0.37024,1.25169 0.74507,2.19113 0.83342,2.08748 0.0887,-0.10327 0.46892,-1.07239 0.8452,-2.15304 z m -6.376345,-2.82475 c -0.09638,-1.05181 -0.247845,-1.68825 -0.660154,-2.76247 -0.189709,-0.49416 -0.428374,-0.67546 -0.889717,-0.67546 -0.649446,0 -1.749372,-0.16905 -5.572149,-0.85758 -2.205283,-0.39701 -6.917318,-1.89059 -9.431566,-2.98944 -0.729765,-0.31899 -1.363682,-0.54312 -1.408432,-0.49799 -0.0872,0.0872 1.267757,1.12502 3.686845,2.82329 2.681696,1.88255 8.493122,4.54505 11.942143,5.47118 2.403865,0.64562 2.438211,0.63797 2.33303,-0.51099 z M 96.219348,153.4617 c 1.413557,-4.83182 2.806384,-13.8162 2.785194,-17.9663 l -0.0153,-2.26227 -0.827832,2.82421 c -0.983959,3.35661 -1.934719,5.96472 -3.589084,9.84571 -1.306769,3.06524 -1.495254,4.14153 -0.925516,5.28353 0.197357,0.39624 0.623436,1.63149 0.944334,2.74473 0.342699,1.18698 0.675454,1.93334 0.804042,1.80475 0.120863,-0.12086 0.48957,-1.14399 0.820489,-2.27436 z m -5.559297,0.95352 c -0.0028,-0.0306 -0.871817,-2.60222 -1.930053,-5.70762 l -1.924164,-5.6462 -4.148264,-1.41187 c -2.281549,-0.77651 -4.676771,-1.5739 -5.32285,-1.77202 l -1.174586,-0.35953 1.466262,1.76972 c 1.477737,1.78349 2.082585,2.40027 5.404395,5.51057 1.108723,1.0382 1.750824,1.81592 1.643195,1.9901 -0.244785,0.39625 -2.111882,0.35953 -2.584241,-0.0459 -0.213422,-0.18512 -1.050816,-0.57448 -1.861284,-0.86585 -0.810468,-0.29069 -1.694601,-0.62956 -1.964706,-0.75195 -0.270028,-0.12239 -1.553772,-0.66628 -2.852433,-1.2084 -1.298661,-0.54235 -2.942163,-1.32826 -3.652193,-1.74692 -0.709876,-0.41843 -1.346776,-0.70529 -1.414857,-0.63721 -0.175174,0.17518 1.438265,4.7766 1.759928,5.02008 0.146106,0.11016 1.702097,0.56071 3.458047,1.0001 3.532783,0.88444 11.153782,3.36626 13.185497,4.29399 1.151332,0.52552 1.930283,0.7596 1.912307,0.57448 z m 2.083426,-13.6665 c 0.499515,-1.24825 1.186213,-3.5604 1.526158,-5.13812 0.517874,-2.40432 0.595899,-3.26627 0.478861,-5.32461 -0.132337,-2.33127 -0.572185,-4.71188 -0.623437,-3.37375 -0.0612,1.527 -3.161475,12.58249 -3.940962,14.03896 -0.227191,0.42378 -0.199653,0.79938 0.130042,1.81133 0.229486,0.70223 0.468916,1.36858 0.533937,1.4811 0.181294,0.3167 0.89905,-1.00614 1.894866,-3.49491 z M 81.102573,129.11944 c -0.120862,-0.30369 -0.532407,-1.31572 -0.914884,-2.24843 l -0.696107,-1.69582 -1.719156,-0.46662 c -4.854087,-1.3158 -9.76348,-4.51598 -14.550098,-9.4845 l -2.761939,-2.86674 1.258654,2.3331 c 0.692282,1.28321 1.596304,2.83041 2.009073,3.43824 0.413074,0.60814 1.157909,1.71388 1.655817,2.45779 2.386577,3.56553 6.494835,6.44879 11.316641,7.94236 4.372931,1.3545 4.723356,1.40147 4.401923,0.58978 z m 3.388054,-0.85958 c 0.147636,-0.37177 0.667804,-2.44356 1.155538,-4.60479 1.971973,-8.74578 2.031869,-10.10633 0.601254,-13.65479 -0.539292,-1.33737 -1.600588,-3.66818 -2.358657,-5.17965 -1.112854,-2.21913 -1.423501,-2.66717 -1.613669,-2.32737 -0.129277,0.23178 -1.006143,3.42982 -1.948029,7.10748 -1.313578,5.12886 -1.676089,6.90562 -1.556145,7.62651 0.147636,0.88796 0.715232,2.21033 3.179758,7.41018 0.576009,1.21566 1.24236,2.68001 1.48049,3.25403 0.506399,1.22155 0.693048,1.28642 1.05946,0.36794 z m -21.112172,-5.03454 c -0.471976,-0.90104 -1.766429,-2.64765 -1.878189,-2.53589 -0.05355,0.0535 0.352643,0.77512 0.909988,1.59599 1.015017,1.49449 1.512772,1.97779 0.968201,0.9399 z m 106.490275,-3.98739 c 5.59104,-0.5523 5.30939,-0.46968 6.12965,-1.79634 0.39242,-0.63491 1.09113,-1.73461 1.55255,-2.44395 1.01165,-1.55523 1.25689,-2.33563 2.26617,-7.2116 0.4299,-2.07799 1.16594,-5.60167 1.63516,-7.830439 0.46892,-2.228615 1.05289,-5.26785 1.29721,-6.753695 0.24402,-1.485769 0.73436,-4.178174 1.08807,-5.983081 0.35418,-1.804907 1.19195,-5.144463 1.19195,-5.196863 -0.92467,-0.277678 -2.30633,1.989567 -2.69707,2.583936 -1.80361,3.068456 -4.43604,5.88509 -6.51541,9.011071 -1.20939,1.836117 -3.16836,5.505904 -4.89142,9.162991 -0.76342,1.62086 -1.96325,4.16272 -2.66563,5.64857 -2.00762,4.24648 -5.145,11.01395 -5.145,11.09801 0,0.18895 3.38752,0.0383 6.75377,-0.28838 z m -6.47334,-3.50318 c 2.15809,-4.62108 2.63328,-5.70992 2.49184,-5.70992 -0.0803,0 0.0306,-0.19353 0.24249,-0.4299 0.5194,-0.57372 1.89601,-3.6639 1.71357,-3.84642 -0.0788,-0.0788 -0.0306,-0.14381 0.10327,-0.14381 0.13616,0 0.3863,-0.46968 0.55612,-1.04378 0.65556,-2.2153 4.85998,-10.568282 5.95753,-11.836422 0.12316,-0.142281 0.85338,-1.147812 1.62239,-2.234198 1.44637,-2.043114 2.82467,-3.799982 4.10007,-5.226084 0.40466,-0.453617 0.83801,-1.007443 0.96178,-1.23188 0.12392,-0.224132 0.71752,-0.988167 1.31924,-1.697278 0.60201,-0.709112 1.01761,-1.289329 0.92429,-1.289329 -0.21572,0 -2.10309,1.287722 -3.69664,2.522204 -1.61986,1.254982 -7.24479,6.587317 -7.24479,6.867902 -1.61574,1.554385 -3.0934,4.004224 -4.38808,5.274276 -0.95305,0.913277 -3.60201,4.227972 -5.60099,7.008879 -1.14085,1.58713 -2.17063,2.88571 -2.28866,2.88571 -0.51864,0 -0.4888,1.17528 0.0872,3.38775 0.34117,1.31098 0.85377,3.6896 1.13925,5.28583 0.51634,2.88357 0.69458,3.60591 0.89239,3.60591 0.0536,0 0.5546,-0.96698 1.10689,-2.14898 z m -91.667777,-5.40294 c -2.153572,-4.59997 -2.446014,-5.15074 -2.995633,-5.64199 -0.296037,-0.26467 -2.803018,-1.20671 -5.572072,-2.09452 -6.70971,-2.1512 -6.311093,-2.04281 -5.998762,-1.63134 0.143046,0.18818 1.013563,1.33706 1.934643,2.55273 1.798175,2.37319 4.86579,5.49328 6.943556,7.06227 1.535337,1.15952 4.457535,2.33434 5.890522,2.36845 l 1.033834,0.0306 -1.236088,-2.64008 z M 70.290878,94.921061 c 0.0069,-1.75595 0.102504,-3.966282 0.209597,-4.911764 0.341934,-3.055529 -0.83181,-6.180592 -3.131565,-8.334623 l -0.770078,-0.721351 -0.0069,0.598193 c -0.0057,0.32893 -0.107093,2.691564 -0.226426,5.249797 l -0.215717,4.651145 1.883697,3.610579 c 1.100538,2.109435 1.958663,3.494076 2.064073,3.330376 0.09944,-0.153755 0.187414,-1.716784 0.197358,-3.472734 z M 59.811096,87.983166 c -0.475801,-1.046839 -0.967512,-1.94038 -1.092735,-1.985742 -0.125453,-0.0459 -0.170585,-0.175174 -0.09944,-0.289152 0.06885,-0.113978 -0.122393,-0.472741 -0.428374,-0.796317 -0.455147,-0.482685 -1.211686,-0.717526 -4.170295,-1.294912 -1.987807,-0.387832 -3.677436,-0.641796 -3.754926,-0.564536 -0.07802,0.07803 0.152991,1.311818 0.510989,2.743122 0.454382,1.815081 0.773444,2.636717 1.053341,2.71589 1.336449,0.377887 6.429354,1.189043 8.430548,1.343105 0.347289,0.0306 0.273854,-0.279973 -0.449027,-1.871305 z m -0.73206,-10.749657 0.161405,-3.93469 -1.171602,-0.872735 c -0.644091,-0.479626 -1.751896,-1.279767 -2.461084,-1.777139 l -1.289328,-0.904328 v 1.568154 c 0,1.397111 0.119332,1.784559 1.096713,3.550989 0.603548,1.090517 1.604795,2.994256 2.225631,4.230497 0.621142,1.236241 1.162117,2.208649 1.20266,2.160763 0.03825,-0.0459 0.146871,-1.857535 0.23484,-4.021511 z m -7.405282,-1.804525 0.670864,-0.155285 -1.382882,-2.043726 c -1.347924,-1.992091 -1.394433,-2.032251 -1.839407,-1.587278 -0.410015,0.410015 -0.428373,0.605843 -0.185118,1.920951 0.149166,0.805495 0.312101,1.602653 0.362587,1.771478 0.09639,0.319751 1.206867,0.364118 2.374492,0.09333 z M 97.419636,245.05781 C 59.056394,242.22901 25.388128,217.42341 11.258601,181.5774 5.7962233,167.71944 3.4179075,152.41884 4.4692591,137.89927 6.1055704,115.30316 14.551495,95.068697 29.456225,78.036786 c 1.27074,-1.452034 2.38979,-2.640083 2.48671,-2.640083 2.236493,2.104692 3.820099,4.713488 5.181945,7.378126 l -2.024907,2.390096 C 25.971481,95.939903 19.395638,108.62879 16.032598,121.9578 c -3.189856,12.64215 -3.672924,26.56429 -1.35718,39.11121 3.429973,18.58385 12.112344,35.13797 25.396521,48.42215 7.337201,7.3372 14.737129,12.63274 24.193097,17.31326 10.317306,5.10682 19.830569,7.87443 31.262335,9.09498 3.782694,0.4039 13.424009,0.54312 16.295799,0.23561 l 1.61757,-0.17288 -0.0306,4.50718 -0.0306,4.50711 -2.21033,0.15834 c -3.09538,0.22184 -10.24831,0.18129 -13.75294,-0.0773 z m 44.605184,-7.83519 c -0.38554,-3.01606 -0.27309,-5.28996 -0.27156,-8.4551 l 4.47957,-2.26579 c 17.61725,-8.91071 31.53504,-22.79607 40.43802,-40.34402 6.72884,-13.2626 9.87295,-26.48023 9.87295,-41.50475 0,-12.23879 -1.92355,-22.33594 -6.55848,-34.42794 l -0.44138,-1.15041 c 1.37171,-1.01418 6.48688,-4.03582 7.46426,-3.92391 0.60355,0.21037 0.83869,0.63874 1.91284,3.47794 6.24064,16.49461 8.07531,33.19545 5.56266,50.63692 -4.82203,33.47243 -26.60904,62.63275 -57.37278,76.78882 -4.69414,2.16008 -4.73743,2.17002 -5.08671,1.16824 z M 163.87724,74.394538 c -10.66773,-8.892351 -23.18283,-15.316581 -36.27179,-18.619113 -7.69642,-1.941987 -14.40238,-2.756356 -22.69524,-2.756356 -11.94918,0 -22.072188,1.861361 -33.113981,6.089104 -1.936249,0.741239 -3.556879,1.31113 -3.601399,1.266227 -1.603571,-1.664691 -2.447162,-3.894377 -3.681337,-5.717031 -1.450504,-2.115631 -1.140928,-1.758015 1.794963,-2.992649 13.871813,-5.833533 30.341561,-8.539708 45.355454,-7.452556 18.17559,1.316101 35.07845,7.136324 49.72669,17.122405 4.72558,3.221524 11.17429,8.415632 11.20817,9.027518 -2.51011,2.229686 -4.41592,3.569195 -6.65945,5.751224 z"
       id="path838-23"
       inkscape:connector-curvature="0"
       sodipodi:nodetypes="ccscccssscccccssccccccscccccccsccccccccscccccssccccccccccccscccccccccccccccccccccccccccccccccsccccssccccscscccccccccccsccccccsccccsccccccsccccsscccscccsccccccccsccccccccsccccssccccssccsccsscccccscscccccccscssscccccccscccscccsccsssccsccccccsccccccccccccscccccccccccccccscccccscccsccsccccssccccssccccccccsccccscccscccccsccccccccccccscsccccccccccsccsccccccccccccccccccccccsccsccccccccccccccccsccscccccccscccccsccsscsccssssccccccsccsccscccccssccccsccsccccsccsccccccsccscscccccccsccccccccccscsccccscccccssccccsscccccccccccccsscccszccccssccccssccc"
       inkscape:export-xdpi="1930.0005"
       inkscape:export-ydpi="1930.0005" />
  </g>
</svg>
